<svg id="Layer_1" data-name="Layer 1" xmlns="http://www.w3.org/2000/svg" viewBox="0 0 170.08 170.08"><defs><style>.cls-1{fill:#fef5f4;}</style></defs><path class="cls-1" d="M101.14,71.11c0-1.28,0-2.57,0-3.89V63.55l-3.61.6c-2,.33-3.83.59-5.65.85a82.89,82.89,0,0,0-11.62,2.18C68.09,70.66,62,80.75,64.26,93.52c1,5.53,4.15,10,8.64,12.18a14.93,14.93,0,0,0,6.6,1.5,18.18,18.18,0,0,0,8.32-2.13c4.41-2.3,7.75-6,10.21-11.45,3.29-7.2,3.2-14.55,3.11-22.34ZM92.39,91c-1.9,4.16-4.26,6.87-7.45,8.53s-6.57,1.9-9.31.56S71,96.05,70.37,92.42c-1.73-9.64,2.49-16.67,11.57-19.28a80.2,80.2,0,0,1,10.84-2l2.15-.3v.52C95,78.73,95.1,85.1,92.39,91Z"/><path class="cls-1" d="M90.21,48.72c-6.74.74-13.71,1.5-20.5,2.89C43.53,57,30.69,73.87,33.54,99.25c1.57,14,10.5,24.65,23.29,27.72a55.88,55.88,0,0,0,13.09,1.63,42.63,42.63,0,0,0,28-10.18c1.29-1.08,2.51-2.2,3.73-3.33.28.33.56.66.85,1l.19.23c2.39,2.78,4.87,5.66,7.52,8.35,5.13,5.22,9,3.17,12.51.18l6-5.24.39-.34c2-1.76,4-3.53,6.08-5.28,5.79-5,6.07-7.82,1.35-13.76a27.08,27.08,0,0,1-6-18c.22-14,.13-28.08,0-41.73v-.14c-.12-19.46-9.35-31.29-28.22-36.16-1.66-.43-3.33-.84-5-1.25l-2.33-.57-17.34-.1-.78.1c-1.26.33-2.53.63-3.8.93l-.14,0c-2.94.7-6,1.41-9,2.43C49.37,10.81,40.22,20.81,37,35.5c-.44,2-.76,4.57.74,6.69s4,2.66,6,2.91c2.42.29,4.84.55,7.26.8h.11c3.19.33,6.5.68,9.7,1.13,4.94.69,8.27-1.61,9.41-6.48,1.21-5.13,4.31-8.15,9.49-9.23,4.82-1,8.94-.37,11.61,1.77,2.28,1.83,3.47,4.73,3.52,8.62l0,1.18c0,1.72,0,3.5.16,5.28h0ZM78.4,25.26c-7.57,1.58-12.5,6.37-14.26,13.88-.42,1.77-.75,2-2.51,1.75-3.34-.46-6.73-.82-10-1.16l-.16,0c-2.33-.24-4.66-.48-7-.77a6.28,6.28,0,0,1-1.64-.36A6.44,6.44,0,0,1,43,36.84c2.75-12.43,10.53-20.91,23.12-25.21,2.68-.92,5.57-1.6,8.38-2.26,1.23-.29,2.46-.58,3.68-.89H94L96.17,9c1.59.39,3.18.78,4.76,1.19,16,4.13,23.47,13.73,23.57,30.2v.14c.09,13.62.18,27.7,0,41.59a33.08,33.08,0,0,0,7.3,21.94,13.23,13.23,0,0,1,1.95,2.78,12.44,12.44,0,0,1-2.49,2.43l-5.8,5-.36.31-6.36,5.52c-2.27,2-2.27,2-4,.16-2.5-2.54-4.91-5.34-7.24-8l-.1-.12c-1-1.18-2-2.37-3.08-3.54l-2.08-2.36-2.33,2.12-1.65,1.52L98,110c-1.32,1.22-2.68,2.49-4.07,3.65-9.77,8.17-21.78,10.62-35.68,7.28-10.19-2.44-17.3-11-18.58-22.38C37.23,76.5,48,62.36,71,57.69c6.52-1.33,13.34-2.08,20-2.81l4.71-.53c5-.57,5.75-3.74,5.55-6.3-.13-1.69-.15-3.48-.17-5.24l0-1.17c-.08-5.75-2.1-10.37-5.84-13.38a17.73,17.73,0,0,0-11.24-3.59A27.35,27.35,0,0,0,78.4,25.26Z"/><path class="cls-1" d="M156.11,122.57a36.7,36.7,0,0,0-21.25,1.94,29.43,29.43,0,0,0-4.19,2.32l-.1.06c-.5.32-1,.63-1.5.93l-2.3,1.34,2.35,5.94,5.29-.27c1.31-.07,2.62-.18,3.94-.28l1.88-.14c-.46.22-.88.46-1.26.69-.23.13-.45.26-.68.37C121.85,143.63,104.92,147.83,88,148h-.91c-25,0-48.78-7.71-70.59-22.91a8.59,8.59,0,0,0-3.6-1.27c-.28,0-.55-.1-.8-.17l-5.25-1.43,1.44,5.24c.07.27.12.56.18.94a7.51,7.51,0,0,0,1.57,4c14.5,16.29,30.81,26.77,49.87,32,3.52,1,7.1,1.69,10.56,2.38l.15,0c1.53.31,3.06.61,4.58.94l19,.07.4-.1.89-.26a9.63,9.63,0,0,1,1.23-.33c19.21-2.81,35.81-10.21,49.36-22l.26-.22c-.42,1.24-.84,2.48-1.23,3.72-.26.83-.44,1.64-.62,2.44l-.21.95-.53,2.18,4.34,2.68,1.64-1.07c.18-.12.37-.22.62-.37a9.94,9.94,0,0,0,2.17-1.55c6.09-6,9.4-13.77,10.11-23.68C162.89,126.11,160.58,123.4,156.11,122.57Zm-62.79,39H76.16c-1.49-.32-3-.61-4.5-.92-3.35-.67-6.83-1.37-10.12-2.28a92.77,92.77,0,0,1-39-22.1A125.53,125.53,0,0,0,88,154.15c17.9-.13,35.75-4.54,53-13.12q.32-.15.63-.33c-12.75,11-27.77,17.62-45.89,20.28a13,13,0,0,0-2.15.53Zm60.87-30.75c-1.62-2.2-4.39-2.65-7.15-2.79a35.92,35.92,0,0,1,7.94.61c1.48.28,1.47.43,1.42,1.08a36.56,36.56,0,0,1-1.73,9.11c0-.06,0-.13.05-.19C155.42,135.92,155.83,133.07,154.19,130.85Zm-5.06,3.74a8.27,8.27,0,0,1-.26,1.88,4.78,4.78,0,0,0-.64-1.12,4.06,4.06,0,0,0-1.37-1.09A9.23,9.23,0,0,1,149.13,134.59Z"/></svg>
