<svg id="Layer_1" data-name="Layer 1" xmlns="http://www.w3.org/2000/svg" viewBox="0 0 155.91 170.08"><defs><style>.cls-1{fill:#fef5f4;}</style></defs><path class="cls-1" d="M63.32,125.68A53,53,0,0,1,51,124.15c-11.74-2.82-19.94-12.6-21.39-25.53C27,75,39,59.16,63.41,54.17c6.52-1.33,13.23-2.07,19.73-2.78l4.53-.51c1.49-.17,1.48-.23,1.4-1.26-.14-1.81-.16-3.62-.18-5.38V43.11c-.06-4.23-1.4-7.42-4-9.48-2.93-2.36-7.36-3.08-12.46-2A12.49,12.49,0,0,0,62.1,41.67c-.93,4-3.43,5.68-7.43,5.12-3.17-.44-6.41-.78-9.55-1.11-2.34-.24-4.67-.48-7-.77-1.64-.2-3.65-.63-4.75-2.19s-.84-3.65-.47-5.28c3-13.66,11.54-23,25.3-27.67,2.81-1,5.72-1.65,8.53-2.31,1.29-.31,2.57-.61,3.84-.94l.38,0,16.42,0,2.24.55c1.61.4,3.22.79,4.82,1.21,17.5,4.52,26.06,15.49,26.18,33.54.08,13.24.17,26.93-.05,40.47a27.67,27.67,0,0,0,6.08,18.35c4.08,5.14,3.91,6.93-1.1,11.25l-6,5.16q-3.07,2.69-6.17,5.35c-3.41,2.95-6.15,3.87-10.05-.1-2.52-2.56-4.91-5.33-7.21-8l-2-2.35-.58.54c-1.31,1.22-2.67,2.48-4.11,3.69A39.66,39.66,0,0,1,63.32,125.68ZM76.85,28.14a15.66,15.66,0,0,1,9.93,3.14c3.26,2.62,5,6.7,5.1,11.79V44.2c0,1.71,0,3.48.17,5.18.28,3.53-2,4.25-4,4.48-1.51.18-3,.34-4.55.51C77,55.08,70.39,55.81,64,57.11,41,61.81,30.1,76.05,32.59,98.29c1.31,11.63,8.63,20.42,19.11,22.94,13.94,3.34,26,.87,35.83-7.35,1.39-1.16,2.71-2.39,4-3.59l1.72-1.59,1.13-1,1,1.14c1,1.16,2,2.34,3.06,3.52,2.27,2.64,4.61,5.36,7.07,7.86,2.31,2.35,3.15,2.35,6-.07l6.16-5.34,6-5.17c3.77-3.26,3.77-3.26.71-7.11a30.59,30.59,0,0,1-6.73-20.27c.22-13.5.13-27.18.05-40.4-.11-16.73-7.71-26.47-23.93-30.66-1.59-.41-3.19-.8-4.78-1.19l-2.08-.52H71.15c-1.24.32-2.48.61-3.72.91a83.48,83.48,0,0,0-8.24,2.23C46.48,17,38.62,25.52,35.84,38.09c-.33,1.47-.33,2.45,0,2.9s1.21.77,2.66.94c2.31.29,4.62.53,6.94.77,3.16.33,6.44.67,9.65,1.12,2.49.35,3.52-.37,4.1-2.84a15.48,15.48,0,0,1,12.64-12.3A25,25,0,0,1,76.85,28.14ZM72.58,105a12.92,12.92,0,0,1-5.72-1.3A14.4,14.4,0,0,1,59.32,93C57.26,81.45,62.77,72.34,73.7,69.21a79.6,79.6,0,0,1,11-2.07c1.78-.25,3.62-.51,5.5-.82L92,66V67.8c0,1.34,0,2.65,0,4,.08,7.36.16,14.31-2.87,21-2.24,4.91-5.26,8.3-9.22,10.37A16,16,0,0,1,72.58,105ZM89,69.55c-1.3.21-2.58.38-3.83.56a76.83,76.83,0,0,0-10.63,2c-9.47,2.72-14.05,10.33-12.25,20.36.71,4,2.81,7,5.9,8.53s6.77,1.32,10.36-.55c3.4-1.77,5.9-4.62,7.88-9,2.76-6,2.68-12.37,2.6-19.69C89,71.05,89,70.3,89,69.55Z"/><path class="cls-1" d="M86.57,163.6l-17.86,0c-1.52-.33-3.06-.64-4.59-.94-3.33-.67-6.77-1.36-10.11-2.29-18.15-5-33.7-15-47.53-30.55a5.83,5.83,0,0,1-1.16-3.1c-.06-.36-.12-.72-.21-1.06l-.69-2.53,2.53.69c.32.09.65.14,1,.21a6.87,6.87,0,0,1,2.81,1C32.11,139.85,55.37,147.4,79.9,147.4h.89c16.62-.12,33.22-4.24,49.33-12.23.27-.13.54-.29.8-.44a7.36,7.36,0,0,1,2.5-1.07c.76-.13,3.34-.44,4.48,1s.78,3.52.44,4.61a5.41,5.41,0,0,1-2,2.44l-.4.34c-12.89,11.2-28.69,18.24-47,20.92a11.26,11.26,0,0,0-1.41.36c-.27.09-.54.17-.82.24Zm-17.38-3h17l.53-.16a13.89,13.89,0,0,1,1.85-.46c18-2.63,32.83-9.24,45.45-20.22l.46-.38c.33-.28.94-.78,1-1a3.69,3.69,0,0,0,.12-1.75,4.8,4.8,0,0,0-1.67,0,5.16,5.16,0,0,0-1.48.69c-.32.19-.65.39-1,.55-16.53,8.19-33.57,12.41-50.65,12.54-25.48.19-49.64-7.54-71.78-23a1.82,1.82,0,0,0-.56-.24,1.59,1.59,0,0,0,.25.62c13.43,15.08,28.51,24.78,46.09,29.65,3.24.9,6.62,1.58,9.9,2.23C66.2,160,67.7,160.28,69.19,160.6Zm66.52-23.94Z"/><path class="cls-1" d="M138.88,152.75l-2.47-1.52.26-1.06.21-.95c.16-.72.33-1.47.57-2.23.41-1.3.84-2.59,1.28-3.88.8-2.39,1.64-4.85,2.26-7.29.19-.76.77-3.06.23-3.79-.36-.49-1.58-.79-3.62-.89a66.12,66.12,0,0,0-8.2.3c-1.26.1-2.52.2-3.78.26l-4,.21-1.41-3.54,1.12-.65,1.58-1a26.84,26.84,0,0,1,3.84-2.13,34,34,0,0,1,19.7-1.79c3.58.67,5.28,2.62,5.05,5.79-.66,9.22-3.72,16.4-9.34,22a8.48,8.48,0,0,1-1.8,1.27c-.22.13-.45.25-.66.39Zm-3-24.65c.62,0,1.25,0,1.87.05,2.34.11,4.67.45,5.89,2.09s.85,4,.27,6.31c-.65,2.56-1.5,5.08-2.33,7.52-.43,1.27-.86,2.54-1.26,3.82,0,.13-.08.25-.11.37,5-5,7.67-11.5,8.28-19.86.09-1.37-.29-2.2-2.61-2.63a30.66,30.66,0,0,0-18,1.6,19,19,0,0,0-2.5,1.34h.07c1.23-.07,2.47-.16,3.7-.26C131.36,128.28,133.61,128.1,135.87,128.1Z"/></svg>
