<svg id="Layer_1" data-name="Layer 1" xmlns="http://www.w3.org/2000/svg" viewBox="0 0 155.91 170.08"><defs><style>.cls-1{fill:#fef5f4;}</style></defs><path class="cls-1" d="M93.52,71.57c0-1.24,0-2.5,0-3.77V64.25l-3.5.59c-1.88.31-3.7.57-5.46.81a82.13,82.13,0,0,0-11.24,2.11C61.55,71.13,55.63,80.89,57.85,93.24A15.85,15.85,0,0,0,66.2,105a14.29,14.29,0,0,0,6.38,1.46,17.61,17.61,0,0,0,8-2.06c4.26-2.23,7.5-5.86,9.88-11.08,3.18-7,3.09-14.08,3-21.61ZM85.05,90.85c-1.83,4-4.12,6.64-7.2,8.25s-6.36,1.84-9,.54-4.46-4-5.09-7.46c-1.67-9.33,2.41-16.13,11.19-18.65a75.68,75.68,0,0,1,10.49-1.94l2.08-.3v.51C87.6,78.94,87.67,85.1,85.05,90.85Z"/><path class="cls-1" d="M83,49.9c-6.52.72-13.27,1.46-19.84,2.8-25.32,5.17-37.74,21.54-35,46.09,1.52,13.57,10.16,23.84,22.53,26.82a54.81,54.81,0,0,0,12.67,1.57,41.2,41.2,0,0,0,27.1-9.85c1.25-1,2.43-2.12,3.61-3.22l.82,1,.19.22c2.31,2.69,4.71,5.47,7.27,8.08,5,5,8.75,3.07,12.1.18l5.86-5.08.37-.33c2-1.7,3.92-3.41,5.89-5.1,5.6-4.83,5.86-7.57,1.3-13.32a26.25,26.25,0,0,1-5.76-17.4c.22-13.51.13-27.16.05-40.36v-.14C122,23,113.06,11.54,94.81,6.83Q92.4,6.2,90,5.62l-2.24-.56L71,5l-.75.1c-1.22.31-2.45.61-3.68.9L66.4,6a89.41,89.41,0,0,0-8.67,2.35c-14.3,4.88-23.14,14.56-26.29,28.76-.43,1.94-.73,4.43.71,6.48S36,46.16,37.94,46.4c2.34.29,4.68.53,7,.78h.11c3.09.32,6.29.65,9.39,1.09,4.77.67,8-1.56,9.1-6.27a11,11,0,0,1,9.18-8.92c4.66-1,8.64-.37,11.23,1.71,2.21,1.77,3.35,4.57,3.41,8.33v1.15c0,1.66,0,3.38.16,5.11h0ZM71.52,27.21c-7.32,1.52-12.1,6.17-13.8,13.43-.4,1.71-.72,1.93-2.43,1.69-3.23-.45-6.5-.79-9.71-1.12l-.15,0c-2.25-.23-4.51-.47-6.76-.75a6.25,6.25,0,0,1-1.58-.34,6.83,6.83,0,0,1,.21-1.69C40,26.39,47.49,18.19,59.67,14c2.59-.88,5.39-1.54,8.11-2.18,1.18-.28,2.37-.57,3.55-.87H86.65l2.06.51,4.6,1.15c15.46,4,22.7,13.28,22.81,29.22V42c.08,13.18.17,26.8-.05,40.24a32,32,0,0,0,7.06,21.22,13.21,13.21,0,0,1,1.89,2.69,12.52,12.52,0,0,1-2.41,2.35c-1.88,1.62-3.74,3.25-5.61,4.87l-.35.3q-3.08,2.68-6.16,5.34c-2.2,1.9-2.19,1.9-3.9.16-2.42-2.46-4.75-5.17-7-7.79l-.1-.11q-1.47-1.73-3-3.43l-2-2.28-2.25,2-1.59,1.47-.15.14c-1.27,1.18-2.58,2.4-3.93,3.53-9.45,7.9-21.07,10.27-34.52,7-9.85-2.36-16.73-10.66-18-21.65-2.39-21.34,8.06-35,30.23-39.54,6.31-1.29,12.91-2,19.32-2.72q2.28-.24,4.56-.51c4.79-.55,5.56-3.62,5.37-6.09-.13-1.64-.15-3.37-.17-5.07V43.05c-.08-5.56-2-10-5.66-12.94a17.17,17.17,0,0,0-10.87-3.47A26.29,26.29,0,0,0,71.52,27.21Z"/><path class="cls-1" d="M146.7,121.35a35.37,35.37,0,0,0-20.56,1.88,27.2,27.2,0,0,0-4.06,2.24l-.09.06c-.48.3-1,.61-1.45.89l-2.23,1.3,2.28,5.75,5.11-.27c1.27-.07,2.54-.16,3.81-.26l1.82-.14c-.44.21-.85.44-1.22.66s-.43.26-.65.37c-15.91,7.89-32.29,11.95-48.68,12.07H79.9c-24.21,0-47.19-7.46-68.29-22.17a8.44,8.44,0,0,0-3.49-1.23,6.57,6.57,0,0,1-.77-.16L2.28,121,3.67,126c.07.26.11.54.17.91a7.28,7.28,0,0,0,1.52,3.85c14,15.75,29.81,25.89,48.24,31,3.41.94,6.87,1.64,10.22,2.31l.14,0c1.48.3,3,.6,4.43.92l18.38.06.38-.1.87-.25a7.27,7.27,0,0,1,1.19-.31c18.57-2.73,34.64-9.89,47.74-21.28l.25-.21c-.4,1.2-.81,2.39-1.18,3.59-.26.81-.43,1.59-.6,2.36l-.21.92-.51,2.12,4.19,2.58,1.6-1c.17-.11.35-.22.59-.35a9.77,9.77,0,0,0,2.11-1.5c5.89-5.83,9.08-13.32,9.77-22.92C153.25,124.77,151,122.15,146.7,121.35ZM86,159.1H69.35L65,158.21c-3.25-.65-6.61-1.32-9.79-2.2a89.77,89.77,0,0,1-37.73-21.38A121.59,121.59,0,0,0,80.82,151.9c17.31-.13,34.57-4.4,51.3-12.7.2-.1.4-.2.6-.32-12.33,10.63-26.86,17.05-44.38,19.62a13.33,13.33,0,0,0-2.09.51Zm58.89-29.75c-1.57-2.12-4.25-2.56-6.92-2.7a34.81,34.81,0,0,1,7.68.6c1.43.26,1.42.41,1.38,1a35.69,35.69,0,0,1-1.68,8.81c0-.06,0-.12,0-.18C146,134.26,146.43,131.5,144.84,129.35ZM140,133a9,9,0,0,1-.26,1.82,4.32,4.32,0,0,0-.62-1.08,3.89,3.89,0,0,0-1.32-1.05A9.22,9.22,0,0,1,140,133Z"/></svg>
