<svg id="Layer_1" data-name="Layer 1" xmlns="http://www.w3.org/2000/svg" viewBox="0 0 170.08 170.08"><defs><style>.cls-1{fill:#fef5f4;}</style></defs><path class="cls-1" d="M151.07,120.15a33,33,0,0,1-19.78-29.1c-.6-12.2,5.24-23.32,15.23-29l2.64-1.51-1.48-2.65C141.18,46.21,124,38.29,110.8,40.92,104.6,42.15,98.51,44,92.63,45.8l-.22.07-3.12,1c-2.48.74-4.39,1.2-6.43.36s-4.41-1.58-6.56-2.24c-1.19-.37-2.38-.73-3.56-1.13-8.68-3-16-3.49-22.9-1.67C36.09,45.74,26.49,54.81,20.5,69.87c-3.89,9.77-4.81,20.48-2.9,33.72a100,100,0,0,0,21.28,49.34,72.32,72.32,0,0,0,10.65,10.63,17.18,17.18,0,0,0,11,4,19.83,19.83,0,0,0,6.07-1c2.75-.9,5.58-1.75,8.36-2.58q2.57-.76,5.13-1.56a22.68,22.68,0,0,1,13.54-.32c3,.89,6,1.75,9,2.62,2.07.6,4.15,1.19,6.22,1.8,6.87,2,13.24.57,18.93-4.3a71.25,71.25,0,0,0,15.89-19.78C146,138.32,148,134,150,129.82c.86-1.84,1.72-3.69,2.61-5.52l1.38-2.85Zm-40.46,40.46-6.32-1.82-.2,0c-2.9-.83-5.79-1.66-8.68-2.53a28.61,28.61,0,0,0-17.13.34l-5.1,1.55c-2.78.83-5.65,1.69-8.47,2.61a11.54,11.54,0,0,1-11.31-1.94,65.34,65.34,0,0,1-9.74-9.72,93.78,93.78,0,0,1-20-46.34c-1.75-12.13-1-21.84,2.52-30.56,5.22-13.12,13.46-21,25.18-24.06a26,26,0,0,1,6.67-.85,39.26,39.26,0,0,1,12.7,2.39c1.2.41,2.42.78,3.63,1.15l.1,0a62.65,62.65,0,0,1,6,2c3.9,1.6,7.35.8,10.55-.16l3.13-1,.23-.07c5.75-1.76,11.69-3.57,17.58-4.74,9.51-1.89,22.51,3.41,28.71,11.49-10.28,7.21-16.21,19.66-15.57,32.91a39.24,39.24,0,0,0,20.59,33l-1.33,2.85c-1.9,4.07-3.87,8.28-6.06,12.21a65.55,65.55,0,0,1-14.52,18.12C119.7,161.07,115.5,162.05,110.61,160.61Z"/><path class="cls-1" d="M82.64,44l1.88.38a18.24,18.24,0,0,0,3.71.37c6.27,0,12.92-3.07,18.71-8.65,8.87-8.54,13.72-21,12.06-30.94l-.39-2.34-2.36-.22C108,1.83,98.16,6.86,90.67,15.69,83.4,24.27,80.14,34.4,82.16,42.13ZM113.18,8.74c.2,7.63-3.81,16.47-10.5,22.92-4.8,4.62-10.2,7.1-14.92,6.92-.5-5.57,2.33-12.7,7.6-18.92S107.34,9.33,113.18,8.74Z"/></svg>
