<svg id="Layer_1" data-name="Layer 1" xmlns="http://www.w3.org/2000/svg" viewBox="0 0 141.73 170.08"><defs><style>.cls-1{fill:#fef5f4;}</style></defs><path class="cls-1" d="M135.29,119.29A32.25,32.25,0,0,1,116,90.91c-.58-11.91,5.12-22.75,14.86-28.32l2.58-1.47L132,58.53C125.65,47.16,108.83,39.43,96,42c-6,1.2-12,3-17.73,4.76l-.21.07-3,.92c-2.42.73-4.28,1.18-6.27.35s-4.3-1.54-6.41-2.19c-1.16-.35-2.32-.71-3.47-1.1-8.46-2.88-15.57-3.4-22.34-1.62C23.11,46.7,13.75,55.55,7.91,70.24c-3.8,9.53-4.69,20-2.83,32.9a97.48,97.48,0,0,0,20.76,48.13,70.25,70.25,0,0,0,10.39,10.37A16.75,16.75,0,0,0,47,165.55a19.23,19.23,0,0,0,5.93-1c2.68-.87,5.44-1.7,8.15-2.52l5-1.51a22.1,22.1,0,0,1,13.22-.32c2.89.87,5.8,1.7,8.79,2.56l6.07,1.75c6.71,2,12.92.56,18.47-4.19A69.54,69.54,0,0,0,128.1,141c2.25-4,4.22-8.23,6.12-12.31.84-1.8,1.68-3.6,2.55-5.39l1.34-2.78ZM95.82,158.77,89.65,157l-.19-.05c-2.83-.81-5.65-1.62-8.47-2.46a27.86,27.86,0,0,0-16.71.32l-5,1.52c-2.71.81-5.51,1.65-8.26,2.54A11.26,11.26,0,0,1,40,157a63.68,63.68,0,0,1-9.51-9.49A91.51,91.51,0,0,1,11,102.28C9.31,90.45,10.09,81,13.48,72.46,18.57,59.66,26.61,52,38.05,49a25.51,25.51,0,0,1,6.5-.82,38.56,38.56,0,0,1,12.39,2.32c1.17.4,2.36.77,3.54,1.13l.1,0c2,.6,4,1.23,5.88,2,3.8,1.57,7.17.78,10.29-.16l3-.92L80,52.5c5.61-1.71,11.41-3.48,17.16-4.62,9.28-1.84,21.95,3.32,28,11.21-10,7-15.81,19.18-15.18,32.11a38.26,38.26,0,0,0,20.09,32.21l-1.31,2.78c-1.85,4-3.77,8.08-5.91,11.91a63.65,63.65,0,0,1-14.17,17.68C104.69,159.22,100.59,160.17,95.82,158.77Z"/><path class="cls-1" d="M68.53,45l1.83.37a18.22,18.22,0,0,0,3.62.37c6.12,0,12.61-3,18.26-8.45C100.89,29,105.62,16.82,104,7.1l-.38-2.28-2.31-.22c-8.09-.74-17.65,4.16-24.95,12.78-7.1,8.37-10.28,18.26-8.31,25.8ZM98.32,10.6c.21,7.45-3.71,16.07-10.24,22.36-4.68,4.51-9.94,6.93-14.55,6.76-.5-5.44,2.27-12.39,7.41-18.46S92.63,11.18,98.32,10.6Z"/></svg>
