<svg id="Layer_1" data-name="Layer 1" xmlns="http://www.w3.org/2000/svg" viewBox="0 0 141.73 170.08"><defs><style>.cls-1{fill:#fef5f4;}</style></defs><path class="cls-1" d="M47,164.05a15.32,15.32,0,0,1-9.8-3.58A69.15,69.15,0,0,1,27,150.33,96,96,0,0,1,6.57,102.92C4.74,90.28,5.61,80.07,9.3,70.8,15,56.58,24,48,36.91,44.64c6.48-1.7,13.31-1.19,21.48,1.59,1.16.4,2.34.76,3.51,1.12,2.07.63,4.21,1.29,6.27,2.14,2.45,1,4.65.49,7.28-.31l3.26-1A179.08,179.08,0,0,1,96.3,43.47c12.26-2.45,28.32,4.93,34.37,15.79l.73,1.3-1.29.73C119.87,67.13,113.89,78.51,114.49,91a33.73,33.73,0,0,0,20.19,29.68l1.41.63-.67,1.39q-1.3,2.7-2.56,5.42c-1.89,4-3.84,8.23-6.07,12.2a68,68,0,0,1-15.16,18.9c-5.14,4.4-10.89,5.71-17.08,3.89-2-.6-4.09-1.18-6.14-1.77-2.9-.83-5.81-1.66-8.71-2.53a23.53,23.53,0,0,0-14.09.31c-1.66.52-3.32,1-5,1.52-2.69.81-5.48,1.64-8.19,2.52A17.5,17.5,0,0,1,47,164.05ZM44.55,46.67a27,27,0,0,0-6.88.87c-11.94,3.12-20.3,11.1-25.58,24.37-3.49,8.76-4.3,18.48-2.55,30.58a93,93,0,0,0,19.79,46,66.1,66.1,0,0,0,9.73,9.7,12.72,12.72,0,0,0,12.45,2.15c2.74-.89,5.54-1.73,8.25-2.55l5-1.5a26.4,26.4,0,0,1,15.83-.33c2.89.87,5.78,1.7,8.68,2.53,2.05.58,4.11,1.17,6.16,1.77,5.23,1.53,9.9.46,14.28-3.29a65.2,65.2,0,0,0,14.5-18.08c2.17-3.88,4.1-8,6-12,.64-1.37,1.27-2.73,1.92-4.09A36.64,36.64,0,0,1,111.5,91.12c-.64-13.06,5.39-25,15.8-31.64-5.92-9-20-15.15-30.42-13.07-5.82,1.16-11.65,2.94-17.29,4.66l-3.28,1c-3,.89-5.93,1.59-9.28.2-1.93-.79-4-1.43-6-2-1.2-.37-2.41-.74-3.6-1.15A39.86,39.86,0,0,0,44.55,46.67Z"/><path class="cls-1" d="M74,44.23a16.06,16.06,0,0,1-3.32-.34l-.91-.18-.24-.91c-1.85-7.08,1.22-16.45,8-24.45,7-8.25,16.06-12.94,23.67-12.25l1.16.1.19,1.15c1.54,9.25-3,20.85-11.33,28.85C85.8,41.41,79.68,44.23,74,44.23Zm-1.77-3.12c5.37.7,11.48-1.83,16.91-7.07,7.27-7,11.43-16.89,10.61-25h-.08c-6.4,0-13.88,4.21-19.85,11.26S71.1,35.07,72.21,41.11Z"/></svg>
