<svg id="Layer_1" data-name="Layer 1" xmlns="http://www.w3.org/2000/svg" viewBox="0 0 170.08 170.08"><defs><style>.cls-1{fill:#fef5f4;}</style></defs><path class="cls-1" d="M6,10.15H162.85l1.79,0,.48-.26c2.35-1.26,2.63-2.44,2.63-3.23s-.27-2-2.65-3.25l-.5-.27H7.22l-1.14,0a3.81,3.81,0,0,0-2.71,1A3.39,3.39,0,0,0,2.32,6.63,3.55,3.55,0,0,0,6,10.15Z"/><path class="cls-1" d="M165.1,160.19l-.5-.27H7.22l-1.14,0a3.81,3.81,0,0,0-2.71,1,3.38,3.38,0,0,0-1.05,2.54A3.56,3.56,0,0,0,6,167H162.85l1.8,0,.47-.25c2.35-1.26,2.63-2.45,2.63-3.23S167.48,161.47,165.1,160.19Z"/><path class="cls-1" d="M166.7,82.78a3.62,3.62,0,0,0-2-.93l-.09,0H7.22l-1.16,0a3.8,3.8,0,0,0-2.69,1,3.37,3.37,0,0,0-1.05,2.53A3.55,3.55,0,0,0,6,88.84H162.85l1.56,0,.27,0,.06,0a3.75,3.75,0,0,0,2-1,3.23,3.23,0,0,0,.95-1.91,2.66,2.66,0,0,0,.05-.54,2.62,2.62,0,0,0-.06-.57A3.47,3.47,0,0,0,166.7,82.78Z"/></svg>
