<svg id="Layer_1" data-name="Layer 1" xmlns="http://www.w3.org/2000/svg" viewBox="0 0 170.08 170.08"><defs><style>.cls-1{fill:#fef5f4;}</style></defs><path class="cls-1" d="M3.85,7.05H165l1.61,0,.27-.14C169,5.72,169,4.8,169,4.46s0-1.27-2.19-2.45l-.28-.15H5.08l-1.24,0a2.89,2.89,0,0,0-2,.71A2.49,2.49,0,0,0,1,4.46,2.63,2.63,0,0,0,3.85,7.05Z"/><path class="cls-1" d="M166.83,163.18l-.28-.16H5.08l-1.24,0a2.86,2.86,0,0,0-2,.72A2.47,2.47,0,0,0,1,165.62a2.63,2.63,0,0,0,2.81,2.6H165l1.61,0,.27-.14C169,166.88,169,166,169,165.62S169,164.35,166.83,163.18Z"/><path class="cls-1" d="M169,85.33a1.62,1.62,0,0,0,0-.4,2.5,2.5,0,0,0-.72-1.47,2.79,2.79,0,0,0-1.68-.71l0,0H5.08l-1.24,0a2.89,2.89,0,0,0-2,.71A2.49,2.49,0,0,0,1,85.33a2.63,2.63,0,0,0,2.81,2.59H165l1.61,0,0,0a2.86,2.86,0,0,0,1.68-.76,2.39,2.39,0,0,0,.69-1.44,1.55,1.55,0,0,0,0-.34Z"/></svg>
