<svg id="Layer_1" data-name="Layer 1" xmlns="http://www.w3.org/2000/svg" viewBox="0 0 170.08 170.08"><defs><style>.cls-1{fill:#fef5f4;}</style></defs><path class="cls-1" d="M114.16,35.3H130V5.11h-2.93a60.13,60.13,0,0,0-11.66-2.18C101.55,1.71,87.33,2.1,77.26,13.11c-12,13.05-11.78,23.07-11.59,34.68,0,1.48,0,3,0,4.55V62.9H40.07V97.8H65.72v69.82h36V97.8h23.91l4.24-34.9H101.73V46.79C101.73,40.45,107.31,35.3,114.16,35.3ZM71.83,47.69c-.19-11.14-.32-19.18,10-30.42,8.68-9.49,21.62-9.21,33.08-8.21a53.2,53.2,0,0,1,9,1.55V29.14h-9.7c-10.24,0-18.58,7.92-18.58,17.65V69.05h27.35l-2.75,22.59H95.58v69.83H71.88V91.64H46.22V69.05H71.88V52.34C71.88,50.74,71.85,49.2,71.83,47.69Z"/></svg>
