<svg id="Layer_1" data-name="Layer 1" xmlns="http://www.w3.org/2000/svg" viewBox="0 0 99.21 170.08"><defs><style>.cls-1{fill:#fef5f4;}</style></defs><path class="cls-1" d="M78,36.55H93.44V7.13H90.59A59.71,59.71,0,0,0,79.22,5C65.7,3.82,51.84,4.2,42,14.93,30.38,27.65,30.54,37.42,30.73,48.73c0,1.44.05,2.92.05,4.44V63.46h-25v34h25v68.05h35.1v-68h23.3l4.14-34H65.88V47.76C65.88,41.58,71.31,36.55,78,36.55ZM36.73,48.63c-.18-10.85-.31-18.69,9.72-29.65,8.45-9.24,21.08-9,32.24-8a53.54,53.54,0,0,1,8.75,1.51V30.55H78c-10,0-18.11,7.72-18.11,17.21v21.7H86.54l-2.68,22h-24v68.05H36.78v-68h-25v-22h25V53.17C36.78,51.61,36.75,50.1,36.73,48.63Z"/></svg>
