<svg id="Layer_1" data-name="Layer 1" xmlns="http://www.w3.org/2000/svg" viewBox="0 0 99.21 170.08"><defs><style>.cls-1{fill:#fef5f4;}</style></defs><path class="cls-1" d="M64.38,164H32.28V96h-25V65h25V53.17c0-1.53,0-3-.05-4.46-.18-11-.34-20.49,10.9-32.77C52.5,5.7,66,5.35,79.09,6.5A57.16,57.16,0,0,1,90.37,8.63h1.57V35.05H78c-7.5,0-13.61,5.7-13.61,12.71V65H91.62L87.85,96H64.38Zm-29.1-3h26.1V93H85.19l3-25H61.38V47.76c0-8.66,7.45-15.71,16.61-15.71h11V11.34A54.52,54.52,0,0,0,78.82,9.49C67.3,8.48,54.26,8.22,45.34,18,34.91,29.37,35.05,37.88,35.23,48.66c0,1.46.05,3,.05,4.51V68h-25V93h25Z"/></svg>
