<svg id="Layer_1" data-name="Layer 1" xmlns="http://www.w3.org/2000/svg" viewBox="0 0 170.08 170.08"><defs><style>.cls-1{fill:#fef5f4;}</style></defs><path class="cls-1" d="M165.5,79.86l-.2-2.8h0c0-.23-.05-.45-.07-.68a79.49,79.49,0,0,0-12-34.36,80.35,80.35,0,0,0-37-31.35l-.56-.23h0a80.34,80.34,0,0,0-12.24-3.91l-.35-.08h0A80.69,80.69,0,0,0,30.8,25.39l-.87.81-1,.9A80.53,80.53,0,0,0,4.84,76.83,78.73,78.73,0,0,0,4.42,85,80.57,80.57,0,0,0,39.7,151.71l.78.52h0A80.11,80.11,0,0,0,85,165.66a81,81,0,0,0,17.81-2c2.16-.48,4.4-1.09,6.67-1.81a80.37,80.37,0,0,0,45.71-37.16l.22-.38A80.64,80.64,0,0,0,165.66,85C165.66,83.25,165.61,81.5,165.5,79.86Zm-6,.36.11,2c0,.92,0,1.86,0,2.82a74.09,74.09,0,0,1-1.07,12.55,106.49,106.49,0,0,1-19,17.92A95.25,95.25,0,0,0,135,76.85,125.19,125.19,0,0,0,146.83,66a76.47,76.47,0,0,0,7.38-9,73.53,73.53,0,0,1,5,20.07C159.35,78.05,159.44,79.09,159.5,80.22ZM53.32,117.55A214.39,214.39,0,0,0,90.81,104l15.11,31.44a187.41,187.41,0,0,1-23.65,9.11C71.39,138.53,61.34,129.27,53.32,117.55Zm-2.5-96.81L70.87,62.48A134.5,134.5,0,0,1,36.48,73.22C34.1,52.75,39,33.55,50.82,20.74Zm73.53,45.57C125.7,69.12,126.9,72,128,74.8A207.84,207.84,0,0,1,93.63,96L78.88,65.29A138.2,138.2,0,0,0,110,44.35,99,99,0,0,1,124.35,66.31Zm8.58,54a188.87,188.87,0,0,1-21.6,12.56L96.23,101.4A216.69,216.69,0,0,0,130,80.8C134.11,94.38,135.05,108,132.93,120.26ZM76.28,59.88l-20-41.63c17.27-1.06,35.24,7.11,49.65,21.69A134.27,134.27,0,0,1,76.28,59.88Zm-2.81,8L88.21,98.57a206.32,206.32,0,0,1-38.3,13.64c-1.54-2.59-3-5.27-4.32-8a99.11,99.11,0,0,1-8.21-25A138.06,138.06,0,0,0,73.47,67.89Zm35.05,72.94L114,152.2a54.6,54.6,0,0,1-23.81-3.94C96.27,146.15,102.41,143.66,108.52,140.83Zm5.41-2.6c5.91-2.94,11.59-6.11,17-9.48a54.71,54.71,0,0,1-11.56,20.73Zm34.23-93q1.64,2.61,3.05,5.3a63,63,0,0,1-8.74,11.34,114.18,114.18,0,0,1-9.6,9c-1-2.39-2-4.77-3.11-7.14A105.15,105.15,0,0,0,114.3,40.17,60.39,60.39,0,0,0,124.22,27a35.57,35.57,0,0,0,1.94-4.28A74.63,74.63,0,0,1,148.16,45.22ZM102,12.37l.33.07a73.65,73.65,0,0,1,11.53,3.77l.42.17c2.26,1,4.45,2,6.59,3.21a28.09,28.09,0,0,1-2,4.61,54.42,54.42,0,0,1-8.72,11.56C97.56,23,82.27,14.75,66.82,12.68A74.77,74.77,0,0,1,102,12.37Zm-68.86,19,1-.91L35,29.7c1.48-1.34,3-2.59,4.56-3.8-7.95,13.3-11,30.27-9,48a53.55,53.55,0,0,1-14.17-.46,27.81,27.81,0,0,1-4.82-1.33A74.56,74.56,0,0,1,33.17,31.4ZM10.42,85c0-2.31.12-4.59.33-6.81a36,36,0,0,0,4.52,1.14,52.45,52.45,0,0,0,9.55.82c2.11,0,4.32-.11,6.61-.31a104.88,104.88,0,0,0,8.75,26.88c1.12,2.34,2.32,4.6,3.58,6.81a116.25,116.25,0,0,1-12.69,1.81,63,63,0,0,1-14.31-.25A75.23,75.23,0,0,1,14,108,74.48,74.48,0,0,1,10.42,85Zm9.52,36.45c1.49.1,3,.17,4.64.17q3.33,0,7-.3A124,124,0,0,0,47.08,119a95.09,95.09,0,0,0,27.3,27.74,105.53,105.53,0,0,1-25.53,3.55c-2-1.09-3.89-2.26-5.76-3.54l-.48-.33A75.25,75.25,0,0,1,19.94,121.49ZM85,159.66a74.5,74.5,0,0,1-24.56-4.14A138.66,138.66,0,0,0,81.68,151a67.21,67.21,0,0,0,20.48,6.7l-.62.15A74.71,74.71,0,0,1,85,159.66Zm65.37-38.61-.21.36a74.59,74.59,0,0,1-19.55,22.7,67.12,67.12,0,0,0,7.66-20.27A140.25,140.25,0,0,0,155.39,110,73.53,73.53,0,0,1,150.41,121.05Z"/></svg>
