<svg id="Layer_1" data-name="Layer 1" xmlns="http://www.w3.org/2000/svg" viewBox="0 0 170.08 170.08"><defs><style>.cls-1{fill:#fef5f4;}</style></defs><path class="cls-1" d="M84.76,113.52a28,28,0,1,0-28-28A28.07,28.07,0,0,0,84.76,113.52Zm0-50.08a22,22,0,1,1-22,22A22.06,22.06,0,0,1,84.76,63.44Z"/><path class="cls-1" d="M84.76,129.26A43.78,43.78,0,1,0,41,85.48,43.83,43.83,0,0,0,84.76,129.26Zm0-81.56A37.78,37.78,0,1,1,47,85.48,37.82,37.82,0,0,1,84.76,47.7Z"/><path class="cls-1" d="M126.09,57.14a12.22,12.22,0,1,0-12.22-12.21A12.22,12.22,0,0,0,126.09,57.14Zm0-18.43a6.22,6.22,0,1,1-6.22,6.22A6.23,6.23,0,0,1,126.09,38.71Z"/><path class="cls-1" d="M52.58,151.53H117.5a34.06,34.06,0,0,0,34-34V52.58a34.07,34.07,0,0,0-34-34H52.58a34.08,34.08,0,0,0-34,34V117.5A34.07,34.07,0,0,0,52.58,151.53Zm0-127H117.5a28.06,28.06,0,0,1,28,28V117.5a28.06,28.06,0,0,1-28,28H52.58a28.06,28.06,0,0,1-28-28V52.58A28.07,28.07,0,0,1,52.58,24.54Z"/><path class="cls-1" d="M117.16,1.92H52.92a51.06,51.06,0,0,0-51,51v64.24a51.06,51.06,0,0,0,51,51h64.24a51.06,51.06,0,0,0,51-51V52.92A51.06,51.06,0,0,0,117.16,1.92Zm-64.24,6h64.24a45.05,45.05,0,0,1,45,45v64.24a45.05,45.05,0,0,1-45,45H52.92a45.05,45.05,0,0,1-45-45V52.92A45.05,45.05,0,0,1,52.92,7.92Z"/></svg>
