<svg id="Layer_1" data-name="Layer 1" xmlns="http://www.w3.org/2000/svg" viewBox="0 0 170.08 170.08"><defs><style>.cls-1{fill:#fef5f4;}</style></defs><path class="cls-1" d="M84.76,127.76A42.28,42.28,0,1,1,127,85.48,42.33,42.33,0,0,1,84.76,127.76Zm0-81.56A39.28,39.28,0,1,0,124,85.48,39.34,39.34,0,0,0,84.76,46.2Zm0,65.82A26.54,26.54,0,1,1,111.3,85.48,26.57,26.57,0,0,1,84.76,112Zm0-50.08A23.54,23.54,0,1,0,108.3,85.48,23.57,23.57,0,0,0,84.76,61.94Z"/><path class="cls-1" d="M126.09,55.64a10.72,10.72,0,1,1,10.72-10.71A10.72,10.72,0,0,1,126.09,55.64Zm0-18.43a7.72,7.72,0,1,0,7.72,7.72A7.74,7.74,0,0,0,126.09,37.21Z"/><path class="cls-1" d="M117.5,150H52.58A32.57,32.57,0,0,1,20,117.5V52.58A32.58,32.58,0,0,1,52.58,20H117.5A32.57,32.57,0,0,1,150,52.58V117.5A32.56,32.56,0,0,1,117.5,150ZM52.58,23A29.57,29.57,0,0,0,23,52.58V117.5A29.56,29.56,0,0,0,52.58,147H117.5A29.55,29.55,0,0,0,147,117.5V52.58A29.56,29.56,0,0,0,117.5,23Z"/><path class="cls-1" d="M117.16,166.66H52.92a49.56,49.56,0,0,1-49.5-49.5V52.92a49.56,49.56,0,0,1,49.5-49.5h64.24a49.56,49.56,0,0,1,49.5,49.5v64.24A49.56,49.56,0,0,1,117.16,166.66ZM52.92,6.42a46.55,46.55,0,0,0-46.5,46.5v64.24a46.55,46.55,0,0,0,46.5,46.5h64.24a46.55,46.55,0,0,0,46.5-46.5V52.92a46.55,46.55,0,0,0-46.5-46.5Z"/></svg>
