<svg id="Layer_1" data-name="Layer 1" xmlns="http://www.w3.org/2000/svg" viewBox="0 0 170.08 170.08"><defs><style>.cls-1{fill:#fef5f4;}</style></defs><path class="cls-1" d="M87.25,115.14a3,3,0,1,0,3,3A3,3,0,0,0,87.25,115.14Z"/><path class="cls-1" d="M159.87,27.85l-17.05-17a6.45,6.45,0,0,0-9.08,0L113.3,31.24a6.44,6.44,0,0,0-.41,8.62L107,45.77,97.2,36,97,35.83a2.51,2.51,0,0,0-3,.17,2.37,2.37,0,0,0-.11,3.13L103.71,49,98.1,54.65l-9.81-9.8a2.31,2.31,0,0,0-3.23,3.29l9.78,9.77-25.6,25.6a37.86,37.86,0,0,0-52,47l-7,7a6.46,6.46,0,0,0,0,9.15l12.63,12.64a6.49,6.49,0,0,0,9.16,0l6.54-6.54A37.87,37.87,0,0,0,88,131.9l.06-.23a2.4,2.4,0,0,0-1.41-2.76,2.48,2.48,0,0,0-2.8,1l-.13.23a33.27,33.27,0,0,1-54.34,11A33.26,33.26,0,0,1,65.75,87L46.23,106.52a6.37,6.37,0,0,0,0,9l8.94,9a6.36,6.36,0,0,0,9,0l48.61-48.61,9.77,9.78.1.09a2.31,2.31,0,0,0,3.25-3.26L116,72.57,121.63,67l9.78,9.77.16.14a2.43,2.43,0,0,0,3.1-.14,2.37,2.37,0,0,0,.11-3.14L124.9,63.7l5.91-5.92a6.44,6.44,0,0,0,8.62-.41l20.44-20.44A6.43,6.43,0,0,0,159.87,27.85Zm-3.27,5.82L136.17,54.1a1.85,1.85,0,0,1-2.55,0l-17.05-17a1.8,1.8,0,0,1,0-2.56L137,14.07a1.8,1.8,0,0,1,2.55,0l17,17.05A1.79,1.79,0,0,1,156.6,33.67ZM58.43,121.18l-2.84-2.84,44.9-44.89.06-.07a2.3,2.3,0,0,0-3.25-3.26l-45,45-2.84-2.85a1.74,1.74,0,0,1,0-2.45l66.64-66.64,11.4,11.4L60.88,121.18A1.74,1.74,0,0,1,58.43,121.18ZM26.13,156,13.49,143.36a1.83,1.83,0,0,1-.54-1.31,1.85,1.85,0,0,1,.55-1.32L19.19,135a37.71,37.71,0,0,0,15,15.55L28.76,156A1.87,1.87,0,0,1,26.13,156Z"/><circle class="cls-1" cx="132.37" cy="38.3" r="2.98"/><path class="cls-1" d="M138.08,29.61a3,3,0,1,0,3-3A3,3,0,0,0,138.08,29.61Z"/><path class="cls-1" d="M104,69.67a3,3,0,1,0-3-3A3,3,0,0,0,104,69.67Z"/><path class="cls-1" d="M110.69,62.77a2.8,2.8,0,0,0,2-.81l4.72-4.72a2.79,2.79,0,0,0-3.95-4L108.71,58a2.79,2.79,0,0,0,2,4.76Z"/></svg>
