<svg id="Layer_1" data-name="Layer 1" xmlns="http://www.w3.org/2000/svg" viewBox="0 0 212.6 212.6"><defs><style>.cls-1{fill:#fef5f4;}</style></defs><path class="cls-1" d="M64.44,196.42a47.74,47.74,0,1,1,23-89.6l-1.45,2.63a44.75,44.75,0,0,0-53.13,70.89,44.77,44.77,0,0,0,73.1-14.8s.84-1.18,1.91-.79.87,1.92.87,1.92a47.75,47.75,0,0,1-44.25,29.75Z"/><path class="cls-1" d="M109.18,151.68a2.37,2.37,0,1,1,2.37-2.37A2.38,2.38,0,0,1,109.18,151.68Z"/><path class="cls-1" d="M31.41,203.76a6.93,6.93,0,0,1-4.89-2L10.1,185.31a6.9,6.9,0,0,1,0-9.78l10.44-10.44,2.12,2.12L12.22,177.65a3.91,3.91,0,0,0-1.15,2.78,3.84,3.84,0,0,0,1.15,2.75l16.42,16.44a3.94,3.94,0,0,0,5.55,0l9.92-9.92,2.12,2.12-9.93,9.93A6.93,6.93,0,0,1,31.41,203.76Z"/><path class="cls-1" d="M73.3,158.44a6.73,6.73,0,0,1-4.77-2L56.9,144.84a6.78,6.78,0,0,1,0-9.55l88.76-88.76,2.12,2.12L59,137.41a3.78,3.78,0,0,0,0,5.31l11.62,11.63a3.77,3.77,0,0,0,5.31,0l88.77-88.76,2.12,2.12L78.07,156.47A6.73,6.73,0,0,1,73.3,158.44Z"/><path class="cls-1" d="M171.12,71.26a6.82,6.82,0,0,1-4.85-2L144.11,47.1a6.86,6.86,0,0,1,0-9.69l26.56-26.56a6.86,6.86,0,0,1,9.69,0L202.52,33a6.86,6.86,0,0,1,0,9.69L176,69.26A6.81,6.81,0,0,1,171.12,71.26Zm4.39-59.42A3.85,3.85,0,0,0,172.79,13L146.23,39.53a3.85,3.85,0,0,0,0,5.44l22.16,22.17a3.86,3.86,0,0,0,5.45,0L200.4,40.58a3.86,3.86,0,0,0,0-5.45L178.24,13A3.85,3.85,0,0,0,175.51,11.84Z"/><path class="cls-1" d="M167.64,94.44,152.81,79.61l2.12-2.12,14.83,14.83s.91,1.21,0,2.12S167.64,94.44,167.64,94.44Z"/><path class="cls-1" d="M133.76,60.56,118.93,45.73s-.9-1.22,0-2.12,2.12,0,2.12,0l14.83,14.83Z"/><path class="cls-1" d="M156.1,106,141.27,91.15,143.39,89l14.83,14.83a1.62,1.62,0,0,1,0,2.12A1.65,1.65,0,0,1,156.1,106Z"/><path class="cls-1" d="M122.22,72.1,107.39,57.27a1.48,1.48,0,0,1,0-2.12,1.52,1.52,0,0,1,2.12,0L124.34,70Z"/><path class="cls-1" d="M64.84,150.65l-2.12-2.12L123.2,88.05a1.5,1.5,0,0,1,2.12,2.12Z"/><path class="cls-1" d="M167.83,47.9a2.37,2.37,0,1,1,2.37-2.37A2.37,2.37,0,0,1,167.83,47.9Z"/><path class="cls-1" d="M179.13,31.87a2.37,2.37,0,1,0,2.37,2.37A2.38,2.38,0,0,0,179.13,31.87Z"/><path class="cls-1" d="M130.91,84.82a2.37,2.37,0,1,1,2.37-2.36A2.37,2.37,0,0,1,130.91,84.82Z"/><path class="cls-1" d="M139.64,75.85a2.13,2.13,0,0,1-1.5-3.63l6.13-6.13a2.17,2.17,0,0,1,3,0,2.1,2.1,0,0,1,.62,1.5,2.14,2.14,0,0,1-.62,1.51l-6.13,6.13A2.13,2.13,0,0,1,139.64,75.85Z"/></svg>
