<svg id="Layer_1" data-name="Layer 1" xmlns="http://www.w3.org/2000/svg" xmlns:xlink="http://www.w3.org/1999/xlink" viewBox="0 0 170.08 170.08"><defs><style>.cls-1{fill:url(#linear-gradient);}.cls-2{fill:#fef5f4;}</style><linearGradient id="linear-gradient" x1="84.36" y1="2.76" x2="84.36" y2="166.69" gradientUnits="userSpaceOnUse"><stop offset="0" stop-color="#d42445"/><stop offset="1" stop-color="#ee711b"/></linearGradient></defs><rect class="cls-1" x="2.39" y="3.03" width="163.93" height="163.93" rx="20.26"/><path class="cls-2" d="M87.07,112.68a2.74,2.74,0,1,0,2.73,2.73A2.74,2.74,0,0,0,87.07,112.68Z"/><path class="cls-2" d="M153.75,32.53,138.09,16.88a5.89,5.89,0,0,0-8.34,0L111,35.64a5.92,5.92,0,0,0-.38,7.92L105.18,49l-9-9-.2-.15a2.3,2.3,0,0,0-2.8.15,2.18,2.18,0,0,0-.1,2.88L102.18,52,97,57.14l-9-9a2.12,2.12,0,0,0-3,0,2.09,2.09,0,0,0,0,3l9,9-23.5,23.5a34.77,34.77,0,0,0-47.76,43.13l-6.42,6.42a6,6,0,0,0,0,8.41L28,153.19a6,6,0,0,0,8.41,0l6-6a34.78,34.78,0,0,0,45.35-19.11l.06-.22a2.22,2.22,0,0,0-1.3-2.53,2.29,2.29,0,0,0-2.57.94l-.12.22a30.56,30.56,0,0,1-49.9,10.1A30.54,30.54,0,0,1,67.33,86.84L49.4,104.77a5.84,5.84,0,0,0,0,8.23l8.21,8.22a5.82,5.82,0,0,0,4.13,1.7,5.75,5.75,0,0,0,4.11-1.7l44.64-44.63,9,9,.1.08a2.11,2.11,0,0,0,3-3l-9.05-9.06,5.15-5.15,9,9,.15.13a2.23,2.23,0,0,0,2.85-.13,2.17,2.17,0,0,0,.1-2.88l-9.07-9.09L127.07,60a5.92,5.92,0,0,0,7.92-.38l18.76-18.76A5.92,5.92,0,0,0,153.75,32.53Zm-3,5.34L132,56.63a1.7,1.7,0,0,1-2.35,0L114,41a1.66,1.66,0,0,1,0-2.35l18.76-18.76a1.65,1.65,0,0,1,1.17-.48,1.67,1.67,0,0,1,1.18.48l15.65,15.66A1.65,1.65,0,0,1,150.75,37.87ZM60.61,118.22,58,115.62,99.22,74.4l.06-.07a2.12,2.12,0,0,0-3-3L55,112.62,52.4,110a1.59,1.59,0,0,1,0-2.25l61.19-61.19L124.05,57,62.86,118.22A1.59,1.59,0,0,1,60.61,118.22ZM31,150.2l-11.6-11.61a1.7,1.7,0,0,1,0-2.41L24.58,131a34.73,34.73,0,0,0,13.74,14.28l-5,5A1.71,1.71,0,0,1,31,150.2Z"/><circle class="cls-2" cx="128.5" cy="42.13" r="2.73"/><path class="cls-2" d="M133.75,34.15a2.73,2.73,0,1,0,2.73-2.74A2.72,2.72,0,0,0,133.75,34.15Z"/><path class="cls-2" d="M102.42,70.93a2.73,2.73,0,1,0-2.73-2.73A2.74,2.74,0,0,0,102.42,70.93Z"/><path class="cls-2" d="M108.59,64.59a2.52,2.52,0,0,0,1.81-.75l4.33-4.33a2.5,2.5,0,0,0,.75-1.81,2.53,2.53,0,0,0-.75-1.81,2.61,2.61,0,0,0-3.62,0l-4.33,4.33A2.53,2.53,0,0,0,106,62a2.56,2.56,0,0,0,2.56,2.56Z"/></svg>
