<svg id="Layer_1" data-name="Layer 1" xmlns="http://www.w3.org/2000/svg" viewBox="0 0 170.08 170.08"><defs><style>.cls-1{fill:#fef5f4;}</style></defs><path class="cls-1" d="M87.42,117.48a3.21,3.21,0,1,0,3.21,3.2A3.21,3.21,0,0,0,87.42,117.48Z"/><path class="cls-1" d="M165.66,23.42,147.29,5.05a6.93,6.93,0,0,0-9.78,0l-22,22a6.92,6.92,0,0,0-.44,9.29l-6.38,6.37L98.15,32.2,97.92,32a2.69,2.69,0,0,0-3.29.18,2.57,2.57,0,0,0-.12,3.38l10.65,10.67-6,6L88.55,41.73a2.47,2.47,0,0,0-3.48,0,2.43,2.43,0,0,0,0,3.51L95.59,55.81,68,83.39A40.8,40.8,0,0,0,12,134l-7.53,7.53a7,7,0,0,0,0,9.87L18,165a7,7,0,0,0,9.87,0L35,158a40.81,40.81,0,0,0,53.21-22.42l.07-.26a2.58,2.58,0,0,0-1.52-3,2.69,2.69,0,0,0-3,1.1l-.14.26a35.84,35.84,0,1,1-19.3-46.52l-21,21a6.86,6.86,0,0,0,0,9.67l9.64,9.64a6.87,6.87,0,0,0,9.67,0l52.38-52.38,10.53,10.53.1.1a2.48,2.48,0,0,0,3.5-3.51L118.42,71.61l6-6L135,76.09l.18.14a2.61,2.61,0,0,0,3.34-.14,2.55,2.55,0,0,0,.11-3.39L128,62l6.37-6.37a6.91,6.91,0,0,0,9.29-.45l22-22A6.93,6.93,0,0,0,165.66,23.42Zm-3.51,6.27-22,22a2,2,0,0,1-2.75,0L119,33.34a2,2,0,0,1,0-2.76l22-22a2,2,0,0,1,2.76,0l18.37,18.37A1.94,1.94,0,0,1,162.15,29.69ZM56.37,124l-3.06-3.06,48.37-48.37.07-.07A2.48,2.48,0,0,0,98.25,69L49.8,117.4l-3.06-3.06a1.86,1.86,0,0,1,0-2.64l71.8-71.8,12.28,12.28L59,124A1.87,1.87,0,0,1,56.37,124ZM21.56,161.5,8,147.88a2,2,0,0,1,0-2.83l6.14-6.14a40.62,40.62,0,0,0,16.13,16.76l-5.82,5.82A2,2,0,0,1,21.56,161.5Z"/><circle class="cls-1" cx="136.04" cy="34.68" r="3.21"/><path class="cls-1" d="M142.19,25.32a3.21,3.21,0,1,0,3.21-3.21A3.21,3.21,0,0,0,142.19,25.32Z"/><path class="cls-1" d="M105.44,68.48a3.21,3.21,0,1,0-3.21-3.2A3.2,3.2,0,0,0,105.44,68.48Z"/><path class="cls-1" d="M112.67,61.05a3,3,0,0,0,2.13-.88l5.08-5.09a3,3,0,0,0,.88-2.12,3,3,0,0,0-.88-2.13,3.06,3.06,0,0,0-4.25,0l-5.08,5.09a3,3,0,0,0,0,4.25A3,3,0,0,0,112.67,61.05Z"/></svg>
