<svg id="Layer_1" data-name="Layer 1" xmlns="http://www.w3.org/2000/svg" viewBox="0 0 170.08 170.08"><defs><style>.cls-1{fill:#fef5f4;}</style></defs><path class="cls-1" d="M167.17,163.5,88.73,85.05,165.78,8l1.42-1.46.09-.21c1.11-2.5.79-3.31.29-3.81s-1.32-.83-3.86.28l-.22.1L85,81.37,8.23,4.55,7,3.36A4,4,0,0,0,4.48,2.05a2.29,2.29,0,0,0-1.73.71C1.48,4,2.15,5.85,3.32,7l78,78L4.56,161.85l-1.19,1.22a4,4,0,0,0-1.31,2.53,2.35,2.35,0,0,0,.71,1.73,2.22,2.22,0,0,0,1.62.68A3.93,3.93,0,0,0,7,166.76l78-78,77,77,1.46,1.42.21.1a7,7,0,0,0,2.63.74,1.56,1.56,0,0,0,1.18-.46c.48-.48.83-1.32-.29-3.85Z"/></svg>
