<svg id="Layer_1" data-name="Layer 1" xmlns="http://www.w3.org/2000/svg" viewBox="0 0 170.08 170.08"><defs><style>.cls-1{fill:#fef5f4;}</style></defs><path class="cls-1" d="M167.38,162.33,90.1,85.05,165.88,9.28l1.53-1.58.16-.37c1.09-2.44,1.11-3.85.08-4.89s-2.49-1-4.93.08l-.39.18L85,80,9.5,4.45,8.33,3.32A4.88,4.88,0,0,0,5.14,1.69a3.36,3.36,0,0,0-2.47,1C1,4.35,1.7,6.77,3.24,8.31L80,85.05,4.46,160.57l-1.13,1.17A4.86,4.86,0,0,0,1.7,165a3.27,3.27,0,0,0,1,2.44c1.46,1.45,3.9,1.17,5.63-.57L85,90.11l75.76,75.76,1.57,1.53.38.17a7.75,7.75,0,0,0,3,.82,2.51,2.51,0,0,0,1.87-.75c1-1,1-2.49-.08-4.92Z"/></svg>
