<svg id="Layer_1" data-name="Layer 1" xmlns="http://www.w3.org/2000/svg" viewBox="0 0 170.08 170.08"><defs><style>.cls-1{fill:#fef5f4;}</style></defs><path class="cls-1" d="M85,7A47.22,47.22,0,0,0,37.87,54.21C37.87,79.31,81.18,157.67,83,161l2,3.64,2-3.64c1.84-3.33,45.15-81.69,45.15-106.79A47.22,47.22,0,0,0,85,7Zm0,4.61A42.61,42.61,0,0,1,127.6,54.21c0,21-34.95,86.77-42.56,100.85C77.43,141,42.48,75.21,42.48,54.21A42.61,42.61,0,0,1,85,11.65Z"/><path class="cls-1" d="M85,87.2a33,33,0,1,0-33-33A33,33,0,0,0,85,87.2Zm0-61.36A28.37,28.37,0,1,1,56.67,54.21,28.4,28.4,0,0,1,85,25.84Z"/></svg>
