<svg id="Layer_1" data-name="Layer 1" xmlns="http://www.w3.org/2000/svg" viewBox="0 0 170.08 170.08"><defs><style>.cls-1{fill:#fef5f4;}</style></defs><path class="cls-1" d="M85,2.89A49.71,49.71,0,0,0,35.39,52.55C35.39,79,81,161.45,82.92,165L85,168.78,87.16,165c1.94-3.5,47.53-86,47.53-112.4A49.71,49.71,0,0,0,85,2.89Zm0,4.86a44.85,44.85,0,0,1,44.8,44.8c0,22.11-36.79,91.33-44.8,106.15-8-14.82-44.8-84-44.8-106.15A44.85,44.85,0,0,1,85,7.75Z"/><path class="cls-1" d="M85,87.27A34.73,34.73,0,1,0,50.32,52.55,34.76,34.76,0,0,0,85,87.27Zm0-64.59A29.87,29.87,0,1,1,55.17,52.55,29.9,29.9,0,0,1,85,22.68Z"/></svg>
