<svg id="Layer_1" data-name="Layer 1" xmlns="http://www.w3.org/2000/svg" viewBox="0 0 127.56 212.6"><defs><style>.cls-1{fill:#fef5f4;}</style></defs><path class="cls-1" d="M63.78,203.76l-1.24-2.25c-2.33-4.19-57-103.08-57-134.45a58.22,58.22,0,0,1,116.44,0c0,31.37-54.65,130.26-57,134.45Zm0-192.07A55.43,55.43,0,0,0,8.41,67.06c0,28.08,47.06,115.58,55.37,130.81,8.31-15.23,55.37-102.73,55.37-130.81A55.43,55.43,0,0,0,63.78,11.69Z"/><path class="cls-1" d="M63.78,107.32A40.26,40.26,0,1,1,104,67.06,40.3,40.3,0,0,1,63.78,107.32Zm0-77.68A37.42,37.42,0,1,0,101.2,67.06,37.47,37.47,0,0,0,63.78,29.64Z"/></svg>
