<svg id="Layer_1" data-name="Layer 1" xmlns="http://www.w3.org/2000/svg" viewBox="0 0 170.08 170.08"><defs><style>.cls-1{fill:#fef5f4;}</style></defs><path class="cls-1" d="M85,164.05a79,79,0,1,1,79-79A79.1,79.1,0,0,1,85,164.05ZM85,9a76,76,0,1,0,76,76A76.1,76.1,0,0,0,85,9Zm32,114.65a8.16,8.16,0,0,1-3.67-.92l-2.46-1.25a103.27,103.27,0,0,0-9.59-4.5c-8.6-3.34-18.29-4.9-29.6-4.79a132.9,132.9,0,0,0-26,3.18,6.51,6.51,0,0,1-7.88-4.81,6.69,6.69,0,0,1,.84-5.15,6.18,6.18,0,0,1,4-2.74c6.61-1.33,12.14-2.28,17.38-3,2.94-.4,5.94-.56,8.83-.71,1.3-.07,2.6-.14,3.89-.23H73c17.33.26,32.19,4.07,45.42,11.64q.84.47,1.65,1c3.4,2.15,4.42,5.91,2.5,9.14A6.26,6.26,0,0,1,117,123.68ZM72.87,109.22c11.19,0,20.86,1.63,29.53,5a106,106,0,0,1,9.87,4.63l2.44,1.24c2.17,1.1,4.23.68,5.26-1.06h0c1.1-1.84.51-3.79-1.52-5.08-.5-.32-1-.62-1.54-.92-12.76-7.3-27.13-11-43.91-11.24-1.29.09-2.59.16-3.88.23-2.84.15-5.77.3-8.59.68-5.18.7-10.64,1.63-17.19,3a3.18,3.18,0,0,0-2.12,1.42,3.67,3.67,0,0,0-.44,2.84,3.56,3.56,0,0,0,4.35,2.56,135.69,135.69,0,0,1,26.55-3.24Zm52.77-6.35a9.74,9.74,0,0,1-4.26-1l-3.24-1.58c-4.08-2-8.3-4.07-12.57-5.66-8-3-17.06-4.7-27.82-5.35a99.41,99.41,0,0,0-33.09,3.54,7.8,7.8,0,0,1-9.9-5.21c-1.27-4.35,1.1-8.47,5.63-9.81A96.76,96.76,0,0,1,61.07,73.9l6.79-.47,2.65-.18h.06c23.13.42,41.55,5.06,58,14.61a8.92,8.92,0,0,1,4.36,4.83,7.74,7.74,0,0,1-2.47,8.49h0A7.41,7.41,0,0,1,125.64,102.87Zm-54-16.82c2.09,0,4.18.07,6.27.19,11.06.67,20.44,2.48,28.68,5.54a138.05,138.05,0,0,1,12.85,5.78l3.22,1.57c1.29.62,3.77,1.42,5.85-.27A4.78,4.78,0,0,0,130,93.63c-.41-1.24-1.28-2.16-3-3.17-15.94-9.28-33.87-13.8-56.44-14.21l-2.52.17-6.77.47a94,94,0,0,0-20,3.75c-3,.87-4.41,3.32-3.6,6.09s3.33,4,6.21,3.16A102.39,102.39,0,0,1,71.66,86.05Zm63.75-7.27a9.88,9.88,0,0,1-4.91-1.34h0c-10-5.72-21.42-9.39-35.91-11.54a148.9,148.9,0,0,0-29.89-1.24,102.88,102.88,0,0,0-23.76,3.91,9,9,0,0,1-11.76-7.68,8.78,8.78,0,0,1,6.59-9.57c5.68-1.39,11.54-2.63,17.4-3.69a80.58,80.58,0,0,1,10.27-1c2.35-.12,4.73-.09,7-.06l3.63,0c20.82,0,38.69,3.23,54.6,9.88a106.49,106.49,0,0,1,10.74,5.33A9.36,9.36,0,0,1,144,67.41a8.9,8.9,0,0,1-.91,6.85A8.77,8.77,0,0,1,135.41,78.78Zm-3.43-4a6.08,6.08,0,0,0,8.53-2.06,5.91,5.91,0,0,0,.62-4.55A6.39,6.39,0,0,0,138,64.4a105.84,105.84,0,0,0-10.44-5.18c-15.54-6.49-33-9.65-53.44-9.65l-3.67,0c-2.25,0-4.58-.06-6.84.06a75.42,75.42,0,0,0-9.89,1c-5.8,1-11.59,2.27-17.22,3.65a5.74,5.74,0,0,0-4.33,6.26,6,6,0,0,0,8,5.19,106.62,106.62,0,0,1,24.44-4A151.93,151.93,0,0,1,95,62.93c14.87,2.21,26.62,6,37,11.9Z"/></svg>
