<svg id="Layer_1" data-name="Layer 1" xmlns="http://www.w3.org/2000/svg" viewBox="0 0 170.08 170.08"><defs><style>.cls-1{fill:#fef5f4;}</style></defs><path class="cls-1" d="M121.85,110.83c-.58-.36-1.17-.71-1.76-1-13.83-7.91-29.34-11.89-47.49-12.16h-.19l-3.79.22h-.19c-3,.16-6.1.32-9.2.74-5.42.73-11.13,1.71-18,3.08a7.9,7.9,0,0,0-5.16,3.49,8.47,8.47,0,0,0-1.06,6.48,8.2,8.2,0,0,0,9.91,6.1,134.75,134.75,0,0,1,26.4-3.23c11.43-.13,21.2,1.46,29.85,4.81a107,107,0,0,1,9.71,4.56c.84.44,1.69.87,2.54,1.3a9.86,9.86,0,0,0,4.46,1.1,8,8,0,0,0,7-4C127.31,118.31,126,113.48,121.85,110.83ZM71.3,108.35a140.61,140.61,0,0,0-27.59,3.36,2.13,2.13,0,0,1-2.66-1.47,2.25,2.25,0,0,1,.25-1.74,1.79,1.79,0,0,1,1.18-.78c6.69-1.34,12.28-2.3,17.57-3,2.84-.38,5.82-.54,8.71-.69,1.32-.07,2.63-.14,3.94-.23,17,.27,31.46,4,44.33,11.34.51.3,1,.6,1.52.92,1,.61,1.94,1.65,1.07,3.13s-2.83.78-3.39.5l-2.16-1.1-.34-.17a110.35,110.35,0,0,0-10.29-4.83c-9.1-3.52-19.21-5.23-30.91-5.23Z"/><path class="cls-1" d="M130.51,86.61c-17.1-10-36.27-14.8-60.39-15.23h-.06l-3.25.22-6.51.46a100.89,100.89,0,0,0-21.59,4c-5.51,1.63-8.38,6.67-6.83,12A9.51,9.51,0,0,0,44,94.47a101,101,0,0,1,33.5-3.58c10.9.66,20.1,2.43,28.14,5.41,4.31,1.6,8.6,3.71,12.75,5.74l.12.06,3.25,1.59a11.6,11.6,0,0,0,5,1.22,9.27,9.27,0,0,0,5.89-2.08,9.5,9.5,0,0,0,3-10.4A10.74,10.74,0,0,0,130.51,86.61ZM37.8,86.34c-.59-2,.43-3.69,2.66-4.35a95.1,95.1,0,0,1,20.28-3.78l7-.49,2.52-.17c22.89.43,41.06,5,57.19,14.39,1.66,1,2.17,1.66,2.41,2.41a3.37,3.37,0,0,1-1.06,3.7c-1.39,1.13-3.14.67-4.36.08l-3.3-1.61a141.89,141.89,0,0,0-13.36-6c-8.61-3.19-18.39-5.09-29.91-5.78-2.18-.14-4.38-.2-6.54-.2a106.66,106.66,0,0,0-29,4C40.13,89.15,38.37,88.28,37.8,86.34Zm81.35,14.38Z"/><path class="cls-1" d="M26.09,60.43a10.76,10.76,0,0,0,14.05,9.16,103.69,103.69,0,0,1,24.06-4,151.9,151.9,0,0,1,30.42,1.25c14.7,2.18,26.26,5.89,36.37,11.67a11.77,11.77,0,0,0,5.82,1.59,10.85,10.85,0,0,0,10.34-13.64,11.2,11.2,0,0,0-5.46-6.73,114,114,0,0,0-11.19-5.54C114,47.32,95.4,44,73.79,44l-3.72,0c-2.39,0-4.86-.06-7.32.06A83.64,83.64,0,0,0,52,45.08c-6,1.09-12.1,2.37-18,3.81A10.58,10.58,0,0,0,26.09,60.43ZM69.76,50.1H70l3.78,0c20.78,0,38.55,3.2,54.34,9.8a104.29,104.29,0,0,1,10.58,5.25,5.07,5.07,0,0,1,2.51,3,4.59,4.59,0,0,1-.5,3.5,4.69,4.69,0,0,1-6.66,1.54C123.25,67,111,63.09,95.53,60.79a157.43,157.43,0,0,0-31.65-1.31,111.32,111.32,0,0,0-25.47,4.19,4.91,4.91,0,0,1-4.11-.45,5,5,0,0,1-2.1-3.61,4.35,4.35,0,0,1,3.28-4.73c5.77-1.41,11.7-2.66,17.62-3.73a77.57,77.57,0,0,1,10-1C65.25,50.05,67.54,50.08,69.76,50.1Z"/><path class="cls-1" d="M85,2.3A82.74,82.74,0,1,0,167.78,85,82.84,82.84,0,0,0,85,2.3Zm0,6.16A76.58,76.58,0,1,1,8.46,85,76.67,76.67,0,0,1,85,8.46Z"/></svg>
