<svg id="Layer_1" data-name="Layer 1" xmlns="http://www.w3.org/2000/svg" viewBox="0 0 170.08 170.08"><defs><style>.cls-1{fill:#fef5f4;}</style></defs><path class="cls-1" d="M120.85,110.14c-.56-.36-1.13-.7-1.71-1-13.45-7.69-28.54-11.57-46.2-11.83h-.19q-1.84.12-3.69.21h-.18c-2.92.16-5.94.32-8.95.72-5.28.71-10.83,1.66-17.48,3a7.67,7.67,0,0,0-5,3.4,8.24,8.24,0,0,0-1,6.3A8,8,0,0,0,46,116.87a131.6,131.6,0,0,1,25.69-3.15c11.12-.12,20.63,1.43,29,4.69a102.48,102.48,0,0,1,9.45,4.43c.82.43,1.64.85,2.47,1.26a9.54,9.54,0,0,0,4.34,1.08,7.74,7.74,0,0,0,6.81-3.86C126.16,117.41,124.91,112.71,120.85,110.14Zm-49.18-2.42A136.91,136.91,0,0,0,44.83,111a2.08,2.08,0,0,1-2.59-1.43,2.21,2.21,0,0,1,.24-1.69,1.73,1.73,0,0,1,1.15-.76c6.51-1.31,11.94-2.24,17.1-2.93,2.76-.37,5.66-.53,8.47-.68,1.28-.06,2.56-.13,3.84-.22,16.5.27,30.6,3.88,43.13,11,.5.29,1,.58,1.48.89.94.6,1.89,1.61,1,3.05s-2.75.76-3.3.48l-2.1-1.07-.33-.16a105.59,105.59,0,0,0-10-4.7c-8.85-3.43-18.69-5.09-30.07-5.09Z"/><path class="cls-1" d="M129.28,86.57C112.64,76.88,94,72.17,70.53,71.75h-.06L67.3,72c-1.91.12-4.12.28-6.34.44a97.86,97.86,0,0,0-21,3.91C34.6,77.91,31.81,82.81,33.32,88a9.26,9.26,0,0,0,11.75,6.23,98.19,98.19,0,0,1,32.59-3.49C88.27,91.38,97.23,93.1,105,96a134.89,134.89,0,0,1,12.41,5.58l.12.06,3.16,1.54a11.25,11.25,0,0,0,4.91,1.19,9,9,0,0,0,5.73-2,9.24,9.24,0,0,0,2.94-10.12A10.42,10.42,0,0,0,129.28,86.57Zm-90.2-.26c-.58-2,.41-3.59,2.58-4.24A93,93,0,0,1,61.4,78.39l6.77-.47,2.45-.17c22.27.42,39.95,4.87,55.64,14,1.62,1,2.11,1.62,2.35,2.34a3.27,3.27,0,0,1-1,3.6c-1.36,1.11-3.06.66-4.25.09l-3.21-1.57a140.39,140.39,0,0,0-13-5.84c-8.38-3.11-17.9-5-29.11-5.63-2.12-.12-4.26-.19-6.36-.19a104,104,0,0,0-28.21,3.89C41.34,89,39.63,88.2,39.08,86.31Zm79.15,14Z"/><path class="cls-1" d="M27.68,61.09A10.48,10.48,0,0,0,41.36,70a100.84,100.84,0,0,1,23.41-3.85,148.19,148.19,0,0,1,29.59,1.22c14.3,2.13,25.55,5.73,35.39,11.36a11.47,11.47,0,0,0,5.66,1.54,10.28,10.28,0,0,0,9-5.27,10.39,10.39,0,0,0,1.06-8,10.85,10.85,0,0,0-5.31-6.54,109.32,109.32,0,0,0-10.89-5.4c-16.11-6.73-34.15-10-55.18-10l-3.61,0c-2.33,0-4.73-.06-7.13.06a82.71,82.71,0,0,0-10.46,1C47,47.22,41.12,48.47,35.4,49.86A10.31,10.31,0,0,0,27.68,61.09ZM70.17,51h.23l3.69,0c20.21,0,37.51,3.12,52.87,9.54a102.61,102.61,0,0,1,10.29,5.1,4.93,4.93,0,0,1,2.44,2.91A4.41,4.41,0,0,1,139.2,72a4.55,4.55,0,0,1-6.47,1.5c-10.52-6-22.43-9.85-37.49-12.08a152.65,152.65,0,0,0-30.79-1.28,108.4,108.4,0,0,0-24.78,4.08,4.49,4.49,0,0,1-6-4,4.24,4.24,0,0,1,3.19-4.61C42.43,54.32,48.2,53.1,54,52.06a77,77,0,0,1,9.69-1C65.79,51,68,51,70.17,51Z"/><path class="cls-1" d="M85,4.53A80.51,80.51,0,1,0,165.55,85,80.61,80.61,0,0,0,85,4.53Zm0,6A74.51,74.51,0,1,1,10.53,85,74.6,74.6,0,0,1,85,10.53Z"/></svg>
