<svg id="Layer_1" data-name="Layer 1" xmlns="http://www.w3.org/2000/svg" viewBox="0 0 212.6 212.6"><defs><style>.cls-1{fill:#fef5f4;}</style></defs><path class="cls-1" d="M106.3,10.36a95.94,95.94,0,1,0,95.94,95.94A96.05,96.05,0,0,0,106.3,10.36Zm0,188.88a92.94,92.94,0,1,1,92.94-92.94A93,93,0,0,1,106.3,199.24Z"/><path class="cls-1" d="M104.8,105.75,65,152.42s-.8,1.13,0,2a1.64,1.64,0,0,0,2.29,0l40.11-47.1a3.06,3.06,0,0,0,.32-.46,2.83,2.83,0,0,0,0-.51V27.92s-.11-1.73-1.5-1.73-1.5,1.73-1.5,1.73Z"/></svg>
