<svg id="Layer_1" data-name="Layer 1" xmlns="http://www.w3.org/2000/svg" viewBox="0 0 170.08 170.08"><defs><style>.cls-1{fill:#fef5f4;}</style></defs><path class="cls-1" d="M85,5.34A79.7,79.7,0,1,0,164.74,85,79.79,79.79,0,0,0,85,5.34Zm0,4.91A74.79,74.79,0,1,1,10.25,85,74.87,74.87,0,0,1,85,10.25Z"/><path class="cls-1" d="M52.16,126a2.77,2.77,0,0,0,1.83-.73L86.93,86.61a2.46,2.46,0,0,0,.45-.72,2.21,2.21,0,0,0,.11-.85V20.86A2.56,2.56,0,0,0,85,18.29a2.33,2.33,0,0,0-1.71.69,2.8,2.8,0,0,0-.74,1.95V84.14L50.36,122l-.06.09a2.44,2.44,0,0,0,.12,3.15A2.36,2.36,0,0,0,52.16,126Z"/></svg>
