<svg id="Layer_1" data-name="Layer 1" xmlns="http://www.w3.org/2000/svg" viewBox="0 0 170.08 170.08"><defs><style>.cls-1{fill:#fef5f4;}</style></defs><path class="cls-1" d="M85,3a82,82,0,1,0,82,82.05A82.15,82.15,0,0,0,85,3Zm0,5.06a77,77,0,1,1-77,77A77.08,77.08,0,0,1,85,8.05Z"/><path class="cls-1" d="M51.19,127.19a2.88,2.88,0,0,0,1.89-.75L87,86.66A2.07,2.07,0,0,0,87.57,85V19A2.63,2.63,0,0,0,85,16.33a2.37,2.37,0,0,0-1.76.71,3,3,0,0,0-.77,2V84.11l-33.17,39-.07.08a2.55,2.55,0,0,0,.13,3.26A2.45,2.45,0,0,0,51.19,127.19Z"/></svg>
