<svg id="Layer_1" data-name="Layer 1" xmlns="http://www.w3.org/2000/svg" viewBox="0 0 170.08 170.08"><defs><style>.cls-1{fill:#fef5f4;}</style></defs><path class="cls-1" d="M167.73,78.53c-.57-10.57-1.27-19.36-2.19-27.67-1.47-13.23-9.64-21.35-22.42-22.27l-2.48-.18c-11.73-.85-23.87-1.72-35.85-2-13.78-.33-28-.29-43.59.13-10.34.28-21.49,1-35.09,2.18-10.82.95-18.39,7.43-20.78,17.78a92.43,92.43,0,0,0-1.87,11.8A255,255,0,0,0,2.24,91.67c.3,9.64.75,19.89,2.58,29.9,2,10.79,8.53,17.72,18.47,19.51a127.42,127.42,0,0,0,16.84,1.84c8.24.36,16.6.44,24.68.53,5.85.06,11.88.12,17.84.28v.09l2.26,0,.8,0h1.35v0c1.63,0,3.25,0,4.88,0h.26c2.41,0,4.86.05,7.33.05,3.53,0,6.44-.05,9.16-.16,13.12-.55,24.65-1.27,35.23-2.2,10.81-.95,18.39-7.43,20.78-17.79A93.77,93.77,0,0,0,166.57,112,222.54,222.54,0,0,0,167.73,78.53ZM108.5,139.35c-5.38.23-10.9.17-16.26.11l-5.13,0v0l-2.25,0-.8,0c-6.45-.2-12.94-.27-19.2-.33-8-.08-16.37-.17-24.54-.53a120.44,120.44,0,0,1-16.25-1.77c-8.13-1.46-13.3-7-14.94-16C7.36,111.07,6.92,101,6.62,91.54A251.73,251.73,0,0,1,7.83,58.72,85.24,85.24,0,0,1,9.61,47.48c2-8.5,8-13.61,16.88-14.4C40,31.88,51.07,31.2,61.32,30.92c15.51-.42,29.7-.47,43.36-.14,11.88.29,24,1.16,35.65,2l2.47.18c10.62.77,17.15,7.3,18.38,18.39.91,8.21,1.6,16.92,2.17,27.41a218.19,218.19,0,0,1-1.15,32.77,87.77,87.77,0,0,1-1.78,11.24c-2,8.5-8,13.62-16.89,14.4C133,138.1,121.57,138.81,108.5,139.35Z"/><path class="cls-1" d="M66.36,113l49-27.88-49-27.87Zm40.13-27.88L70.74,105.46V64.79Z"/></svg>
