<svg id="Layer_1" data-name="Layer 1" xmlns="http://www.w3.org/2000/svg" viewBox="0 0 226.77 170.08"><defs><style>.cls-1{fill:#fef5f4;}</style></defs><path class="cls-1" d="M226.49,76.13c-.79-14.45-1.74-26.47-3-37.84-2-18.1-13.19-29.2-30.67-30.46l-3.39-.25c-16.05-1.16-32.64-2.35-49-2.75-18.85-.45-38.35-.39-59.63.19-14.14.38-29.39,1.33-48,3C18,9.3,7.63,18.16,4.36,32.31A128.27,128.27,0,0,0,1.8,48.45,352.78,352.78,0,0,0,.13,94.12c.41,13.18,1,27.19,3.53,40.88,2.7,14.76,11.67,24.24,25.27,26.69a172.12,172.12,0,0,0,23,2.51c11.27.49,22.7.61,33.76.72,8,.09,16.25.17,24.4.4v.12l3.09.05,1.1,0h1.84v0l6.67.05h.35c3.31,0,6.66.07,10,.07,4.83,0,8.81-.07,12.53-.23,18-.74,33.71-1.72,48.19-3,14.79-1.3,25.15-10.17,28.42-24.33a124.91,124.91,0,0,0,2.55-16.13C226.11,109.41,227.4,93,226.49,76.13Zm-81,83.2c-7.37.3-14.92.22-22.24.15l-7-.06v0l-3.08,0-1.09,0c-8.83-.27-17.7-.36-26.27-.45-11-.11-22.39-.23-33.55-.72A165.62,165.62,0,0,1,30,155.78c-11.12-2-18.18-9.56-20.43-21.85-2.43-13.29-3-27.05-3.43-40A344.37,344.37,0,0,1,7.78,49a119.22,119.22,0,0,1,2.43-15.37C12.89,22,21.1,15.05,33.31,14c18.48-1.64,33.61-2.57,47.63-3,21.22-.57,40.62-.63,59.31-.18,16.25.39,32.77,1.58,48.75,2.74l3.39.24c14.53,1,23.45,10,25.13,25.14,1.25,11.24,2.2,23.16,3,37.5.9,16.44-.37,32.59-1.57,44.82a120.8,120.8,0,0,1-2.43,15.38c-2.68,11.62-10.89,18.62-23.1,19.69C179,157.61,163.35,158.58,145.48,159.33Z"/><path class="cls-1" d="M87.83,123.28l67-38.13L87.83,47Zm54.89-38.13L93.83,113V57.35Z"/></svg>
