<svg id="Layer_1" data-name="Layer 1" xmlns="http://www.w3.org/2000/svg" viewBox="0 0 226.77 170.08"><defs><style>.cls-1{fill:#fef5f4;}</style></defs><path class="cls-1" d="M133.2,164.05c-3.36,0-6.71,0-10-.07-2.85,0-5.69-.06-8.54-.07V164h-.35l-1.15,0-1.5,0v-.11c-8.65-.26-17.42-.35-25.92-.44-11-.11-22.46-.23-33.7-.72a169.3,169.3,0,0,1-22.84-2.49c-12.93-2.33-21.48-11.38-24-25.47C2.65,121.14,2,107.19,1.63,94.07A349.74,349.74,0,0,1,3.3,48.6a123.23,123.23,0,0,1,2.53-16c3.11-13.47,13-21.92,27.08-23.16,18.57-1.65,33.79-2.59,47.9-3,21.28-.58,40.76-.64,59.55-.19,16.35.39,32.93,1.59,49,2.75l3.38.24C209.4,10.53,220.08,21.14,222,38.46c1.25,11.33,2.2,23.32,3,37.75.91,16.74-.37,33.11-1.59,45.5a124.07,124.07,0,0,1-2.53,16c-3.11,13.48-13,21.92-27.08,23.17-14.45,1.27-30.19,2.25-48.12,3C141.53,164,137.35,164.05,133.2,164.05Zm-18.51-3.14c2.85,0,5.69,0,8.53.07,7.33.07,14.91.15,22.32-.15,17.89-.75,33.59-1.72,48-3,12.91-1.14,21.59-8.55,24.43-20.86a121.2,121.2,0,0,0,2.47-15.56c1.2-12.29,2.47-28.51,1.57-45-.78-14.37-1.72-26.31-3-37.58-1.77-16-11.19-25.37-26.52-26.47l-3.39-.25c-16-1.15-32.55-2.35-48.82-2.74-18.74-.45-38.17-.39-59.39.19-14.06.38-29.22,1.32-47.72,3C20.27,13.61,11.59,21,8.75,33.33A122.4,122.4,0,0,0,6.28,48.89,347.31,347.31,0,0,0,4.63,94c.41,13,1,26.84,3.46,40.23,2.37,13,9.85,20.93,21.64,23.06a168.1,168.1,0,0,0,22.43,2.44c11.19.49,22.58.61,33.6.72,8.62.09,17.52.18,26.3.45l1.14,0,1.5,0ZM89.33,120.7V49.61l62.49,35.54Zm3-65.93v60.78l53.43-30.4Z"/></svg>
